<?xml version="1.0" encoding="UTF-8" standalone="no"?>
<svg
   xmlns:dc="http://purl.org/dc/elements/1.1/"
   xmlns:cc="http://creativecommons.org/ns#"
   xmlns:rdf="http://www.w3.org/1999/02/22-rdf-syntax-ns#"
   xmlns:svg="http://www.w3.org/2000/svg"
   xmlns="http://www.w3.org/2000/svg"
   xmlns:sodipodi="http://sodipodi.sourceforge.net/DTD/sodipodi-0.dtd"
   xmlns:inkscape="http://www.inkscape.org/namespaces/inkscape"
   version="1.1"
   id="svg2"
   width="840"
   height="840"
   viewBox="0 0 840 840"
   sodipodi:docname="logo.svg"
   inkscape:version="1.0 (4035a4fb49, 2020-05-01)">
  <metadata
     id="metadata8">
    <rdf:RDF>
      <cc:Work
         rdf:about="">
        <dc:format>image/svg+xml</dc:format>
        <dc:type
           rdf:resource="http://purl.org/dc/dcmitype/StillImage" />
        <dc:title />
      </cc:Work>
    </rdf:RDF>
  </metadata>
  <defs
     id="defs6" />
  <sodipodi:namedview
     inkscape:document-rotation="0"
     pagecolor="#ffffff"
     bordercolor="#666666"
     borderopacity="1"
     objecttolerance="10"
     gridtolerance="10"
     guidetolerance="10"
     inkscape:pageopacity="0"
     inkscape:pageshadow="2"
     inkscape:window-width="1920"
     inkscape:window-height="1001"
     id="namedview4"
     showgrid="false"
     inkscape:zoom="0.69868884"
     inkscape:cx="554.13794"
     inkscape:cy="494.65952"
     inkscape:window-x="-9"
     inkscape:window-y="-9"
     inkscape:window-maximized="1"
     inkscape:current-layer="g10" />
  <g
     inkscape:groupmode="layer"
     inkscape:label="Image"
     id="g10">
    <path
       style="fill:#000000"
       d="m 397.93674,770.91875 c -1.925,-0.22183 -8.4094,-0.87769 -14.4098,-1.45747 -40.4487,-3.90827 -86.0235,-17.11954 -123.0054,-35.65697 C 138.05664,672.41802 60.957437,547.90119 60.957437,411.504 c 0,-111.08719 51.241793,-215.7575 139.147103,-284.23232 82.2113,-64.039391 189.2668,-89.290991 291.2902,-68.707781 136.67985,27.575125 244.72505,130.292991 278.40975,264.682351 8.106,32.33993 10.5642,52.87668 10.5642,88.25775 0,35.38107 -2.4582,55.91782 -10.5642,88.25775 -32.0679,127.93866 -132.6713,228.54207 -260.60995,260.60993 -15.7234,3.94106 -33.1714,7.18269 -49.2578,9.15149 -8.6986,1.06462 -55.6925,2.12242 -62,1.39558 z m 53.5,-58.51124 c 27.5129,-2.686 56.7092,-9.93861 84.00005,-20.86632 15.7689,-6.31415 47.5,-23.16697 47.5,-25.2279 0,-0.44511 -1.0776,-0.80929 -2.3946,-0.80929 -7.325,0 -26.5749,-8.53916 -35.6054,-15.79432 -6.6878,-5.37309 -36.00005,-34.40226 -36.00005,-35.65248 0,-0.594 6.2946,-7.36253 13.98805,-15.04118 l 13.9879,-13.96119 17.2621,17.16016 c 14.8499,14.76222 18.2402,17.62228 24.262,20.46725 6.4108,3.02873 7.7997,3.30504 16.5,3.28265 13.3549,-0.0344 19.1808,-2.45194 28.5949,-11.86601 9.4141,-9.41406 11.8317,-15.23999 11.866,-28.59488 0.022,-8.70035 -0.2539,-10.08922 -3.2826,-16.5 -2.845,-6.02183 -5.7051,-9.41217 -20.4673,-24.26204 l -17.1601,-17.26204 13.9611,-13.98796 c 7.6787,-7.69338 14.4472,-13.98796 15.0412,-13.98796 1.2502,0 30.2794,29.31214 35.6525,36 7.2552,9.03049 15.7943,28.28041 15.7943,35.60534 0,1.31706 0.3642,2.39466 0.8093,2.39466 2.0609,0 18.9138,-31.73109 25.2279,-47.5 15.2235,-38.01896 22.1921,-73.97365 22.1921,-114.5 0,-48.35285 -10.2994,-92.30843 -31.6324,-135.00001 -9.5079,-19.02726 -25.5812,-44.56065 -27.5743,-43.80371 -0.7638,0.29004 -102.0226,90.8557 -102.0226,91.24876 0,0.10424 3.1006,-1.34953 6.8902,-3.23059 17.9209,-8.89556 39.2215,-5.73386 53.7145,7.97299 9.9677,9.42707 14.4805,19.95688 14.5628,33.97958 0.083,14.18196 -1.6977,18.04673 -23.2131,50.37548 l -18.7696,28.20296 5.857,5.79589 c 7.741,7.66018 10.3885,13.62017 10.4206,23.45865 0.047,14.3639 2.44,11.47605 -67.742,81.75 -34.19265,34.2375 -62.62875,62.25 -63.19125,62.25 -0.5625,0 -26.7541,-25.72845 -58.2035,-57.17433 l -57.1808,-57.17432 -8.8225,8.00129 c -4.8523,4.40071 -37.3974,33.56602 -72.3224,64.8118 -34.925,31.24578 -64.5519,57.81076 -65.8375,59.03329 l -2.3375,2.22279 9.8375,8.24388 c 63.5602,53.26361 143.3956,77.98766 225.8375,69.93911 z M 308.71594,483.87805 c 82.8019,-74.17739 133.465,-120.32437 148.4056,-135.17662 17.2188,-17.1171 23.0016,-22.30433 24,-21.5283 0.9968,0.77481 19.2332,-15.0557 75.31525,-65.3788 40.7,-36.52064 74.1288,-66.76265 74.2863,-67.20448 0.7807,-2.19096 -25.9636,-24.1886 -43.0705,-35.42623 -41.4702,-27.24202 -86.25065,-43.20582 -136.71585,-48.7379 -13.5082,-1.4808 -46.4918,-1.4808 -60,0 -37.6818,4.13075 -71.9619,14.03087 -104.3448,30.13483 -11.2845,5.61179 -29.7436,16.2386 -34.6968,19.97487 l -2.3151,1.74624 7.5364,9.03236 7.5363,9.03236 8.2923,-9.47088 c 4.5608,-5.20899 8.6173,-9.11102 9.0144,-8.6712 0.3972,0.43983 3.0745,8.22469 5.9496,17.29969 2.8751,9.075 5.3114,16.59134 5.4139,16.70297 0.1025,0.11163 4.6701,-1.11801 10.1501,-2.73255 5.4801,-1.61453 10.4677,-2.94336 11.0836,-2.95296 1.1217,-0.0175 1.4759,1.48884 5.4314,23.09699 l 2.1261,11.61445 9.6613,-2.84699 c 5.3137,-1.56585 10.38,-2.85485 11.2583,-2.86445 1.2802,-0.014 2.1592,3.1531 4.4312,15.96666 1.5588,8.79126 3.1429,16.48361 3.5202,17.09409 0.4786,0.77447 3.8244,0.211 11.0688,-1.86409 5.7106,-1.63574 10.665,-2.69058 11.0099,-2.3441 0.3449,0.34649 1.8769,7.82998 3.4045,16.62998 1.5275,8.8 3.063,16.33271 3.4122,16.73935 0.3492,0.40666 5.3195,-0.59963 11.0451,-2.23617 6.5282,-1.86594 10.6411,-2.60186 11.0295,-1.97347 0.3406,0.55113 1.8972,8.30742 3.459,17.23618 1.5618,8.92877 2.9085,16.33679 2.9927,16.46228 0.084,0.12549 4.9994,-1.1504 10.9228,-2.8353 5.9234,-1.68491 10.9756,-2.85773 11.2271,-2.60627 0.5868,0.58688 6.3618,31.57074 6.3722,34.18831 0.01,2.01615 -12.5811,15.5251 -14.4679,15.5251 -0.5662,0 -33.8783,-32.8717 -74.0268,-73.04822 -74.9136,-74.96571 -78.4128,-78.15692 -88.7431,-80.93366 -12.6598,-3.4029 -28.5467,1.01376 -38.1346,10.60163 -9.5879,9.58787 -14.0045,25.4748 -10.6016,38.13461 2.7767,10.33035 5.9679,13.82947 80.9336,88.74307 40.1765,40.14859 73.0482,73.4373 73.0482,73.97491 0,0.53761 -3.0254,4.02626 -6.7232,7.75256 l -6.7231,6.7751 h -15.2769 -15.2768 v -14 -14 h -14.5 -14.5 v -14.5 -14.5 h -14 -14 v -14.5 -14.5 h -14.5 -14.5 v -14.5 -14.5 h -14.5 -14.5 v -14.5 -14.5 h -12.8854 -12.8854 l 4.4742,-10.75001 c 2.4608,-5.9125 4.8618,-11.73272 5.3355,-12.93381 0.8141,-2.06415 0.1728,-2.41327 -11.7047,-6.37146 -10.2761,-3.42452 -12.7333,-3.93771 -13.4838,-2.81618 -6.4974,9.70861 -18.6653,33.32941 -23.8876,46.37146 -10.8879,27.19157 -17.80311,54.96244 -21.04101,84.5 -1.4808,13.50821 -1.4808,46.49179 0,60 5.86911,53.53973 23.44321,100.61169 53.85501,144.25 4.1204,5.9125 7.8945,10.75 8.3867,10.75 0.4922,0 57.4693,-50.68168 126.6157,-112.62595 z m 187.7208,11.65978 c 3.3,-1.51803 7.6164,-4.40055 9.592,-6.40559 1.9756,-2.00504 15.44275,-20.98377 29.92705,-42.17496 l 26.335,-38.52942 4.6453,4.57545 4.6453,4.57545 16.2944,-24.48314 c 17.8979,-26.89236 19.011,-29.54158 15.3656,-36.57169 -3.8414,-7.40807 -13.9167,-10.38335 -20.848,-6.1565 -2.045,1.24708 -16.4419,21.50358 -43.8849,61.74626 -22.46275,32.93967 -42.24325,61.38798 -43.95655,63.21848 -5.5329,5.91124 -11.5236,7.13638 -19.7234,4.03359 -3.1308,-1.18467 -6.1717,-5.08661 -7.6856,-9.86176 -2.1981,-6.93275 -0.6195,-10.1763 18.8098,-38.65031 10.0765,-14.76733 28.921,-42.37469 41.87665,-61.34969 12.9557,-18.975 25.3484,-36.525 27.5394,-39 l 3.9837,-4.5 -4.4578,4.10236 c -2.4518,2.25629 -15.919,14.3669 -29.9271,26.91246 l -25.46935,22.81011 -22.715,33.2485 c -12.4932,18.28667 -23.6577,35.09637 -24.8099,37.35488 -8.1883,16.05033 -1.2096,36.35159 15.395,44.78477 9.4708,4.81001 19.0789,4.91603 29.0684,0.32075 z M 182.06764,237.42178 c 7.078,-4.44522 12.8691,-8.26893 12.8691,-8.49712 0,-0.8284 -7.2546,-8.42067 -8.0462,-8.42067 -0.4474,0 -3.9126,4.1625 -7.7005,9.25 -9.3261,12.52587 -11.5145,15.75 -10.6905,15.75 0.3845,0 6.4901,-3.637 13.5681,-8.08221 z m 24.8691,-35.35877 c 0,-2.38687 -1.6225,-2.63358 -3.5213,-0.53544 -1.7389,1.92141 -1.7147,1.97642 0.8663,1.97642 1.645,0 2.655,-0.54817 2.655,-1.44098 z m 28.1572,-25.88853 1.8763,-4.82951 -6.148,4.82951 -6.1481,4.82951 3.8813,1.1058 c 2.8351,0.80774 3.9866,0.80774 4.2717,0 0.2148,-0.60819 1.2348,-3.27908 2.2668,-5.93531 z"
       id="path837" />
  </g>
</svg>
